# This file uses centimeters as units for non-parametric coordinates.

mtllib target.mtl
g default
v -0.180127 -0.951057 -0.309017
v -0.180127 -0.809018 -0.587786
v -0.180127 -0.587786 -0.809017
v -0.180127 -0.309017 -0.951057
v -0.180127 0.000000 -1.000000
v -0.180127 0.309017 -0.951057
v -0.180127 0.587785 -0.809017
v -0.180127 0.809017 -0.587785
v -0.180127 0.951057 -0.309017
v -0.180127 1.000000 0.000000
v -0.180127 0.951057 0.309017
v -0.180127 0.809017 0.587785
v -0.180127 0.587785 0.809017
v -0.180127 0.309017 0.951057
v -0.180127 0.000000 1.000000
v -0.180127 -0.309017 0.951057
v -0.180127 -0.587785 0.809017
v -0.180127 -0.809017 0.587785
v -0.180127 -0.951057 0.309017
v -0.180127 -1.000000 0.000000
v 0.180127 -0.951057 -0.309017
v 0.180127 -0.809018 -0.587786
v 0.180127 -0.587786 -0.809017
v 0.180127 -0.309017 -0.951057
v 0.180127 0.000000 -1.000000
v 0.180127 0.309017 -0.951057
v 0.180127 0.587785 -0.809017
v 0.180127 0.809017 -0.587785
v 0.180127 0.951057 -0.309017
v 0.180127 1.000000 0.000000
v 0.180127 0.951057 0.309017
v 0.180127 0.809017 0.587785
v 0.180127 0.587785 0.809017
v 0.180127 0.309017 0.951057
v 0.180127 0.000000 1.000000
v 0.180127 -0.309017 0.951057
v 0.180127 -0.587785 0.809017
v 0.180127 -0.809017 0.587785
v 0.180127 -0.951057 0.309017
v 0.180127 -1.000000 0.000000
v -0.180127 0.000000 0.000000
v 0.180127 -0.749443 -0.243509
v 0.180127 -0.637514 -0.463181
v 0.180127 -0.463181 -0.637514
v 0.180127 -0.243509 -0.749443
v 0.180127 0.000000 -0.788011
v 0.180127 0.243509 -0.749442
v 0.180127 0.463181 -0.637514
v 0.180127 0.637514 -0.463181
v 0.180127 0.749442 -0.243509
v 0.180127 0.788010 -0.000000
v 0.180127 0.749442 0.243509
v 0.180127 0.637514 0.463181
v 0.180127 0.463181 0.637514
v 0.180127 0.243509 0.749442
v 0.180127 0.000000 0.788010
v 0.180127 -0.243508 0.749442
v 0.180127 -0.463181 0.637514
v 0.180127 -0.637514 0.463181
v 0.180127 -0.749442 0.243508
v 0.180127 -0.788010 -0.000000
v 0.180127 -0.555786 -0.180586
v 0.180127 -0.472780 -0.343495
v 0.180127 -0.343495 -0.472781
v 0.180127 -0.180586 -0.555786
v 0.180127 0.000000 -0.584389
v 0.180127 0.180586 -0.555786
v 0.180127 0.343495 -0.472781
v 0.180127 0.472781 -0.343495
v 0.180127 0.555786 -0.180586
v 0.180127 0.584388 -0.000000
v 0.180127 0.555786 0.180586
v 0.180127 0.472781 0.343495
v 0.180127 0.343495 0.472780
v 0.180127 0.180586 0.555786
v 0.180127 0.000000 0.584388
v 0.180127 -0.180586 0.555786
v 0.180127 -0.343495 0.472780
v 0.180127 -0.472780 0.343495
v 0.180127 -0.555786 0.180586
v 0.180127 -0.584388 -0.000000
v 0.180127 -0.401923 -0.130593
v 0.180127 -0.341896 -0.248402
v 0.180127 -0.248402 -0.341896
v 0.180127 -0.130593 -0.401923
v 0.180127 0.000000 -0.422607
v 0.180127 0.130593 -0.401923
v 0.180127 0.248402 -0.341896
v 0.180127 0.341896 -0.248402
v 0.180127 0.401923 -0.130593
v 0.180127 0.422607 -0.000000
v 0.180127 0.401923 0.130592
v 0.180127 0.341896 0.248402
v 0.180127 0.248402 0.341896
v 0.180127 0.130593 0.401923
v 0.180127 0.000000 0.422607
v 0.180127 -0.130593 0.401923
v 0.180127 -0.248402 0.341896
v 0.180127 -0.341896 0.248402
v 0.180127 -0.401923 0.130592
v 0.180127 -0.422607 -0.000000
v 0.180127 -0.224184 -0.072842
v 0.180127 -0.190702 -0.138554
v 0.180127 -0.138553 -0.190702
v 0.180127 -0.072842 -0.224184
v 0.180127 0.000000 -0.235721
v 0.180127 0.072842 -0.224184
v 0.180127 0.138554 -0.190702
v 0.180127 0.190702 -0.138554
v 0.180127 0.224184 -0.072842
v 0.180127 0.235721 -0.000000
v 0.180127 0.224184 0.072842
v 0.180127 0.190702 0.138553
v 0.180127 0.138554 0.190702
v 0.180127 0.072842 0.224184
v 0.180127 0.000000 0.235721
v 0.180127 -0.072842 0.224184
v 0.180127 -0.138553 0.190702
v 0.180127 -0.190702 0.138553
v 0.180127 -0.224184 0.072842
v 0.180127 -0.235721 -0.000000
v 0.180127 -0.103644 -0.033676
v 0.180127 -0.088165 -0.064056
v 0.180127 -0.064056 -0.088166
v 0.180127 -0.033676 -0.103644
v 0.180127 0.000000 -0.108979
v 0.180127 0.033676 -0.103644
v 0.180127 0.064056 -0.088166
v 0.180127 0.088165 -0.064056
v 0.180127 0.103644 -0.033676
v 0.180127 0.108979 -0.000000
v 0.180127 0.103644 0.033676
v 0.180127 0.088165 0.064056
v 0.180127 0.064056 0.088165
v 0.180127 0.033676 0.103644
v 0.180127 0.000000 0.108978
v 0.180127 -0.033676 0.103644
v 0.180127 -0.064056 0.088165
v 0.180127 -0.088165 0.064056
v 0.180127 -0.103644 0.033676
v 0.180127 -0.108978 -0.000000
vt 0.648603 0.107966
vt 0.626409 0.064408
vt 0.591842 0.029841
vt 0.548284 0.007647
vt 0.500000 -0.000000
vt 0.451716 0.007647
vt 0.408159 0.029841
vt 0.373591 0.064409
vt 0.351397 0.107966
vt 0.343750 0.156250
vt 0.351397 0.204534
vt 0.373591 0.248091
vt 0.408159 0.282659
vt 0.451716 0.304853
vt 0.500000 0.312500
vt 0.548284 0.304853
vt 0.591841 0.282659
vt 0.626409 0.248091
vt 0.648603 0.204534
vt 0.656250 0.156250
vt 0.375000 0.312500
vt 0.387500 0.312500
vt 0.400000 0.312500
vt 0.412500 0.312500
vt 0.425000 0.312500
vt 0.437500 0.312500
vt 0.450000 0.312500
vt 0.462500 0.312500
vt 0.475000 0.312500
vt 0.487500 0.312500
vt 0.500000 0.312500
vt 0.512500 0.312500
vt 0.525000 0.312500
vt 0.537500 0.312500
vt 0.550000 0.312500
vt 0.562500 0.312500
vt 0.575000 0.312500
vt 0.587500 0.312500
vt 0.600000 0.312500
vt 0.612500 0.312500
vt 0.625000 0.312500
vt 0.375000 0.687500
vt 0.387500 0.687500
vt 0.400000 0.687500
vt 0.412500 0.687500
vt 0.425000 0.687500
vt 0.437500 0.687500
vt 0.450000 0.687500
vt 0.462500 0.687500
vt 0.475000 0.687500
vt 0.487500 0.687500
vt 0.500000 0.687500
vt 0.512500 0.687500
vt 0.525000 0.687500
vt 0.537500 0.687500
vt 0.550000 0.687500
vt 0.562500 0.687500
vt 0.575000 0.687500
vt 0.587500 0.687500
vt 0.600000 0.687500
vt 0.612500 0.687500
vt 0.625000 0.687500
vt 0.648603 0.795466
vt 0.626409 0.751908
vt 0.591842 0.717341
vt 0.548284 0.695147
vt 0.500000 0.687500
vt 0.451716 0.695147
vt 0.408159 0.717341
vt 0.373591 0.751909
vt 0.351397 0.795466
vt 0.343750 0.843750
vt 0.351397 0.892034
vt 0.373591 0.935591
vt 0.408159 0.970159
vt 0.451716 0.992353
vt 0.500000 1.000000
vt 0.548284 0.992353
vt 0.591841 0.970159
vt 0.626409 0.935591
vt 0.648603 0.892034
vt 0.656250 0.843750
vt 0.500000 0.156250
vt 0.648603 0.892034
vt 0.626409 0.935591
vt 0.591841 0.970159
vt 0.548284 0.992353
vt 0.500000 1.000000
vt 0.451716 0.992353
vt 0.408159 0.970159
vt 0.373591 0.935591
vt 0.351397 0.892034
vt 0.343750 0.843750
vt 0.351397 0.795466
vt 0.373591 0.751909
vt 0.408159 0.717341
vt 0.451716 0.695147
vt 0.500000 0.687500
vt 0.548284 0.695147
vt 0.591842 0.717341
vt 0.626409 0.751908
vt 0.648603 0.795466
vt 0.656250 0.843750
vt 0.648603 0.892034
vt 0.626409 0.935591
vt 0.591841 0.970159
vt 0.548284 0.992353
vt 0.500000 1.000000
vt 0.451716 0.992353
vt 0.408159 0.970159
vt 0.373591 0.935591
vt 0.351397 0.892034
vt 0.343750 0.843750
vt 0.351397 0.795466
vt 0.373591 0.751909
vt 0.408159 0.717341
vt 0.451716 0.695147
vt 0.500000 0.687500
vt 0.548284 0.695147
vt 0.591842 0.717341
vt 0.626409 0.751908
vt 0.648603 0.795466
vt 0.656250 0.843750
vt 0.648603 0.892034
vt 0.626409 0.935591
vt 0.591841 0.970159
vt 0.548284 0.992353
vt 0.500000 1.000000
vt 0.451716 0.992353
vt 0.408159 0.970159
vt 0.373591 0.935591
vt 0.351397 0.892034
vt 0.343750 0.843750
vt 0.351397 0.795466
vt 0.373591 0.751909
vt 0.408159 0.717341
vt 0.451716 0.695147
vt 0.500000 0.687500
vt 0.548284 0.695147
vt 0.591842 0.717341
vt 0.626409 0.751908
vt 0.648603 0.795466
vt 0.656250 0.843750
vt 0.648603 0.892034
vt 0.626409 0.935591
vt 0.591841 0.970159
vt 0.548284 0.992353
vt 0.500000 1.000000
vt 0.451716 0.992353
vt 0.408159 0.970159
vt 0.373591 0.935591
vt 0.351397 0.892034
vt 0.343750 0.843750
vt 0.351397 0.795466
vt 0.373591 0.751909
vt 0.408159 0.717341
vt 0.451716 0.695147
vt 0.500000 0.687500
vt 0.548284 0.695147
vt 0.591842 0.717341
vt 0.626409 0.751908
vt 0.648603 0.795466
vt 0.656250 0.843750
vt 0.648603 0.892034
vt 0.626409 0.935591
vt 0.591841 0.970159
vt 0.548284 0.992353
vt 0.500000 1.000000
vt 0.451716 0.992353
vt 0.408159 0.970159
vt 0.373591 0.935591
vt 0.351397 0.892034
vt 0.343750 0.843750
vt 0.351397 0.795466
vt 0.373591 0.751909
vt 0.408159 0.717341
vt 0.451716 0.695147
vt 0.500000 0.687500
vt 0.548284 0.695147
vt 0.591842 0.717341
vt 0.626409 0.751908
vt 0.648603 0.795466
vt 0.656250 0.843750
vn 0.000000 -0.951057 -0.309016
vn 0.000000 -0.809017 -0.587785
vn 0.000000 -0.809017 -0.587785
vn 0.000000 -0.951057 -0.309016
vn 0.000000 -0.587785 -0.809017
vn 0.000000 -0.587785 -0.809017
vn 0.000000 -0.309017 -0.951057
vn 0.000000 -0.309017 -0.951057
vn 0.000000 0.000000 -1.000000
vn 0.000000 0.000000 -1.000000
vn 0.000000 0.309017 -0.951056
vn 0.000000 0.309017 -0.951056
vn 0.000000 0.587785 -0.809017
vn 0.000000 0.587785 -0.809017
vn 0.000000 0.809017 -0.587785
vn 0.000000 0.809017 -0.587785
vn 0.000000 0.951057 -0.309017
vn 0.000000 0.951057 -0.309017
vn 0.000000 1.000000 0.000000
vn 0.000000 1.000000 0.000000
vn 0.000000 0.951057 0.309017
vn 0.000000 0.951057 0.309017
vn 0.000000 0.809017 0.587785
vn 0.000000 0.809017 0.587785
vn 0.000000 0.587785 0.809017
vn 0.000000 0.587785 0.809017
vn 0.000000 0.309017 0.951057
vn 0.000000 0.309017 0.951057
vn 0.000000 -0.000000 1.000000
vn 0.000000 -0.000000 1.000000
vn 0.000000 -0.309017 0.951057
vn 0.000000 -0.309017 0.951057
vn 0.000000 -0.587785 0.809017
vn 0.000000 -0.587785 0.809017
vn 0.000000 -0.809017 0.587785
vn 0.000000 -0.809017 0.587785
vn 0.000000 -0.951057 0.309017
vn 0.000000 -0.951057 0.309017
vn 0.000000 -1.000000 0.000001
vn 0.000000 -1.000000 0.000001
vn -1.000000 -0.000000 0.000000
vn -1.000000 -0.000000 0.000000
vn -1.000000 -0.000000 0.000000
vn -1.000000 -0.000000 0.000000
vn -1.000000 -0.000000 0.000000
vn -1.000000 -0.000000 0.000000
vn -1.000000 -0.000000 0.000000
vn -1.000000 -0.000000 0.000000
vn -1.000000 -0.000000 0.000000
vn -1.000000 -0.000000 0.000000
vn -1.000000 -0.000000 0.000000
vn -1.000000 -0.000000 0.000000
vn -1.000000 -0.000000 0.000000
vn -1.000000 -0.000000 0.000000
vn -1.000000 -0.000000 0.000000
vn -1.000000 -0.000000 0.000000
vn -1.000000 -0.000000 0.000000
vn -1.000000 -0.000000 0.000000
vn -1.000000 -0.000000 0.000000
vn -1.000000 -0.000000 0.000000
vn -1.000000 -0.000000 0.000000
vn 1.000000 0.000000 -0.000000
vn 1.000000 0.000000 -0.000000
vn 1.000000 0.000000 -0.000000
vn 1.000000 0.000000 -0.000000
vn 1.000000 0.000000 -0.000000
vn 1.000000 0.000000 -0.000000
vn 1.000000 0.000000 -0.000000
vn 1.000000 0.000000 -0.000000
vn 1.000000 0.000000 -0.000000
vn 1.000000 0.000000 -0.000000
vn 1.000000 0.000000 -0.000000
vn 1.000000 0.000000 -0.000000
vn 1.000000 0.000000 -0.000000
vn 1.000000 0.000000 -0.000000
vn 1.000000 0.000000 -0.000000
vn 1.000000 0.000000 -0.000000
vn 1.000000 0.000000 -0.000000
vn 1.000000 0.000000 -0.000000
vn 1.000000 0.000000 -0.000000
vn 1.000000 0.000000 -0.000000
vn 1.000000 0.000000 0.000000
vn 1.000000 0.000000 0.000000
vn 1.000000 0.000000 0.000000
vn 1.000000 0.000000 0.000000
vn 1.000000 0.000000 0.000000
vn 1.000000 0.000000 0.000000
vn 1.000000 0.000000 0.000000
vn 1.000000 0.000000 0.000000
vn 1.000000 0.000000 0.000000
vn 1.000000 0.000000 0.000000
vn 1.000000 0.000000 0.000000
vn 1.000000 0.000000 0.000000
vn 1.000000 0.000000 0.000000
vn 1.000000 0.000000 0.000000
vn 1.000000 0.000000 0.000000
vn 1.000000 0.000000 0.000000
vn 1.000000 0.000000 0.000000
vn 1.000000 0.000000 0.000000
vn 1.000000 0.000000 0.000000
vn 1.000000 0.000000 0.000000
vn 1.000000 0.000000 0.000000
vn 1.000000 0.000000 0.000000
vn 1.000000 0.000000 0.000000
vn 1.000000 0.000000 0.000000
vn 1.000000 0.000000 0.000000
vn 1.000000 0.000000 0.000000
vn 1.000000 0.000000 0.000000
vn 1.000000 0.000000 0.000000
vn 1.000000 0.000000 0.000000
vn 1.000000 0.000000 0.000000
vn 1.000000 0.000000 0.000000
vn 1.000000 0.000000 0.000000
vn 1.000000 0.000000 0.000000
vn 1.000000 0.000000 0.000000
vn 1.000000 0.000000 0.000000
vn 1.000000 0.000000 0.000000
vn 1.000000 0.000000 0.000000
vn 1.000000 0.000000 0.000000
vn 1.000000 0.000000 0.000000
vn 1.000000 0.000000 0.000000
vn 1.000000 0.000000 -0.000000
vn 1.000000 0.000000 -0.000000
vn 1.000000 0.000000 -0.000000
vn 1.000000 0.000000 -0.000000
vn 1.000000 0.000000 -0.000000
vn 1.000000 0.000000 -0.000000
vn 1.000000 0.000000 -0.000000
vn 1.000000 0.000000 -0.000000
vn 1.000000 0.000000 -0.000000
vn 1.000000 0.000000 -0.000000
vn 1.000000 0.000000 -0.000000
vn 1.000000 0.000000 -0.000000
vn 1.000000 0.000000 -0.000000
vn 1.000000 0.000000 -0.000000
vn 1.000000 0.000000 -0.000000
vn 1.000000 0.000000 -0.000000
vn 1.000000 0.000000 -0.000000
vn 1.000000 0.000000 -0.000000
vn 1.000000 0.000000 -0.000000
vn 1.000000 0.000000 -0.000000
vn 1.000000 0.000000 -0.000000
vn 1.000000 0.000000 -0.000000
vn 1.000000 0.000000 -0.000000
vn 1.000000 0.000000 -0.000000
vn 1.000000 0.000000 -0.000000
vn 1.000000 0.000000 -0.000000
vn 1.000000 0.000000 -0.000000
vn 1.000000 0.000000 -0.000000
vn 1.000000 0.000000 -0.000000
vn 1.000000 0.000000 -0.000000
vn 1.000000 0.000000 -0.000000
vn 1.000000 0.000000 -0.000000
vn 1.000000 0.000000 -0.000000
vn 1.000000 0.000000 -0.000000
vn 1.000000 0.000000 -0.000000
vn 1.000000 0.000000 -0.000000
vn 1.000000 0.000000 -0.000000
vn 1.000000 0.000000 -0.000000
vn 1.000000 0.000000 -0.000000
vn 1.000000 0.000000 -0.000000
vn 1.000000 0.000000 -0.000000
vn 1.000000 0.000000 -0.000000
vn 1.000000 0.000000 -0.000000
vn 1.000000 0.000000 -0.000000
vn 1.000000 0.000000 -0.000000
vn 1.000000 0.000000 -0.000000
vn 1.000000 0.000000 -0.000000
vn 1.000000 0.000000 -0.000000
vn 1.000000 0.000000 -0.000000
vn 1.000000 0.000000 -0.000000
vn 1.000000 0.000000 -0.000000
vn 1.000000 0.000000 -0.000000
vn 1.000000 0.000000 -0.000000
vn 1.000000 0.000000 -0.000000
vn 1.000000 0.000000 -0.000000
vn 1.000000 0.000000 -0.000000
vn 1.000000 0.000000 -0.000000
vn 1.000000 0.000000 -0.000000
vn 1.000000 0.000000 -0.000000
vn 1.000000 0.000000 -0.000000
vn 1.000000 0.000000 -0.000000
vn 1.000000 0.000000 -0.000000
vn 1.000000 0.000000 -0.000000
vn 1.000000 0.000000 -0.000000
vn 1.000000 0.000000 -0.000000
vn 1.000000 0.000000 -0.000000
vn 1.000000 0.000000 -0.000000
vn 1.000000 0.000000 -0.000000
vn 1.000000 0.000000 -0.000000
vn 1.000000 0.000000 -0.000000
vn 1.000000 0.000000 -0.000000
vn 1.000000 0.000000 -0.000000
vn 1.000000 0.000000 -0.000000
vn 1.000000 0.000000 -0.000000
vn 1.000000 0.000000 -0.000000
vn 1.000000 0.000000 -0.000000
vn 1.000000 0.000000 -0.000000
vn 1.000000 0.000000 -0.000000
vn 1.000000 0.000000 -0.000000
vn 1.000000 0.000000 -0.000000
vn 1.000000 0.000000 0.000000
vn 1.000000 0.000000 0.000000
vn 1.000000 0.000000 0.000000
vn 1.000000 0.000000 0.000000
vn 1.000000 0.000000 0.000000
vn 1.000000 0.000000 0.000000
vn 1.000000 0.000000 0.000000
vn 1.000000 0.000000 0.000000
vn 1.000000 0.000000 0.000000
vn 1.000000 0.000000 0.000000
vn 1.000000 0.000000 0.000000
vn 1.000000 0.000000 0.000000
vn 1.000000 0.000000 0.000000
vn 1.000000 0.000000 0.000000
vn 1.000000 0.000000 0.000000
vn 1.000000 0.000000 0.000000
vn 1.000000 0.000000 0.000000
vn 1.000000 0.000000 0.000000
vn 1.000000 0.000000 0.000000
vn 1.000000 0.000000 0.000000
vn 1.000000 0.000000 0.000000
vn 1.000000 0.000000 0.000000
vn 1.000000 0.000000 0.000000
vn 1.000000 0.000000 0.000000
vn 1.000000 0.000000 0.000000
vn 1.000000 0.000000 0.000000
vn 1.000000 0.000000 0.000000
vn 1.000000 0.000000 0.000000
vn 1.000000 0.000000 0.000000
vn 1.000000 0.000000 0.000000
vn 1.000000 0.000000 0.000000
vn 1.000000 0.000000 0.000000
vn 1.000000 0.000000 0.000000
vn 1.000000 0.000000 0.000000
vn 1.000000 0.000000 0.000000
vn 1.000000 0.000000 0.000000
vn 1.000000 0.000000 0.000000
vn 1.000000 0.000000 0.000000
vn 1.000000 0.000000 0.000000
vn 1.000000 0.000000 0.000000
vn 1.000000 0.000000 -0.000000
vn 1.000000 0.000000 -0.000000
vn 1.000000 0.000000 -0.000000
vn 1.000000 0.000000 -0.000000
vn 1.000000 0.000000 -0.000000
vn 1.000000 0.000000 -0.000000
vn 1.000000 0.000000 -0.000000
vn 1.000000 0.000000 -0.000000
vn 1.000000 0.000000 -0.000000
vn 1.000000 0.000000 -0.000000
vn 1.000000 0.000000 -0.000000
vn 1.000000 0.000000 -0.000000
vn 1.000000 0.000000 -0.000000
vn 1.000000 0.000000 -0.000000
vn 1.000000 0.000000 -0.000000
vn 1.000000 0.000000 -0.000000
vn 1.000000 0.000000 -0.000000
vn 1.000000 0.000000 -0.000000
vn 1.000000 0.000000 -0.000000
vn 1.000000 0.000000 -0.000000
vn 1.000000 0.000000 -0.000000
vn 1.000000 0.000000 -0.000000
vn 1.000000 0.000000 -0.000000
vn 1.000000 0.000000 -0.000000
vn 1.000000 0.000000 -0.000000
vn 1.000000 0.000000 -0.000000
vn 1.000000 0.000000 -0.000000
vn 1.000000 0.000000 -0.000000
vn 1.000000 0.000000 -0.000000
vn 1.000000 0.000000 -0.000000
vn 1.000000 0.000000 -0.000000
vn 1.000000 0.000000 -0.000000
vn 1.000000 0.000000 -0.000000
vn 1.000000 0.000000 -0.000000
vn 1.000000 0.000000 -0.000000
vn 1.000000 0.000000 -0.000000
vn 1.000000 0.000000 -0.000000
vn 1.000000 0.000000 -0.000000
vn 1.000000 0.000000 -0.000000
vn 1.000000 0.000000 -0.000000
s 1
g pCylinder1
usemtl lambert2SG
f 1/21/1 2/22/2 22/43/3 21/42/4
f 2/22/2 3/23/5 23/44/6 22/43/3
f 3/23/5 4/24/7 24/45/8 23/44/6
f 4/24/7 5/25/9 25/46/10 24/45/8
f 5/25/9 6/26/11 26/47/12 25/46/10
f 6/26/11 7/27/13 27/48/14 26/47/12
f 7/27/13 8/28/15 28/49/16 27/48/14
f 8/28/15 9/29/17 29/50/18 28/49/16
f 9/29/17 10/30/19 30/51/20 29/50/18
f 10/30/19 11/31/21 31/52/22 30/51/20
f 11/31/21 12/32/23 32/53/24 31/52/22
f 12/32/23 13/33/25 33/54/26 32/53/24
f 13/33/25 14/34/27 34/55/28 33/54/26
f 14/34/27 15/35/29 35/56/30 34/55/28
f 15/35/29 16/36/31 36/57/32 35/56/30
f 16/36/31 17/37/33 37/58/34 36/57/32
f 17/37/33 18/38/35 38/59/36 37/58/34
f 18/38/35 19/39/37 39/60/38 38/59/36
f 19/39/37 20/40/39 40/61/40 39/60/38
f 20/40/39 1/41/1 21/62/4 40/61/40
s 2
f 2/2/41 1/1/42 41/83/43
f 3/3/44 2/2/41 41/83/43
f 4/4/45 3/3/44 41/83/43
f 5/5/46 4/4/45 41/83/43
f 6/6/47 5/5/46 41/83/43
f 7/7/48 6/6/47 41/83/43
f 8/8/49 7/7/48 41/83/43
f 9/9/50 8/8/49 41/83/43
f 10/10/51 9/9/50 41/83/43
f 11/11/52 10/10/51 41/83/43
f 12/12/53 11/11/52 41/83/43
f 13/13/54 12/12/53 41/83/43
f 14/14/55 13/13/54 41/83/43
f 15/15/56 14/14/55 41/83/43
f 16/16/57 15/15/56 41/83/43
f 17/17/58 16/16/57 41/83/43
f 18/18/59 17/17/58 41/83/43
f 19/19/60 18/18/59 41/83/43
f 20/20/61 19/19/60 41/83/43
f 1/1/42 20/20/61 41/83/43
s off
usemtl lambert3SG
f 141/183/62 122/164/63 123/165/64 124/166/65 125/167/66 126/168/67 127/169/68 128/170/69 129/171/70 130/172/71 131/173/72 132/174/73 133/175/74 134/176/75 135/177/76 136/178/77 137/179/78 138/180/79 139/181/80 140/182/81
usemtl lambert2SG
f 35/67/82 36/66/83 37/65/84 38/64/85 39/63/86 40/82/87 21/81/88 22/80/89 23/79/90 24/78/91 25/77/92 26/76/93 27/75/94 28/74/95 29/73/96 30/72/97 31/71/98 32/70/99 33/69/100 34/68/101 57/99/102 56/98/103 55/97/104 54/96/105 53/95/106 52/94/107 51/93/108 50/92/109 49/91/110 48/90/111 47/89/112 46/88/113 45/87/114 44/86/115 43/85/116 42/84/117 61/103/118 60/102/119 59/101/120 58/100/121
usemtl lambert3SG
f 57/99/122 58/100/123 59/101/124 60/102/125 61/103/126 42/84/127 43/85/128 44/86/129 45/87/130 46/88/131 47/89/132 48/90/133 49/91/134 50/92/135 51/93/136 52/94/137 53/95/138 54/96/139 55/97/140 56/98/141 78/120/142 77/119/143 76/118/144 75/117/145 74/116/146 73/115/147 72/114/148 71/113/149 70/112/150 69/111/151 68/110/152 67/109/153 66/108/154 65/107/155 64/106/156 63/105/157 62/104/158 81/123/159 80/122/160 79/121/161
usemtl lambert2SG
f 78/120/162 79/121/163 80/122/164 81/123/165 62/104/166 63/105/167 64/106/168 65/107/169 66/108/170 67/109/171 68/110/172 69/111/173 70/112/174 71/113/175 72/114/176 73/115/177 74/116/178 75/117/179 76/118/180 77/119/181 99/141/182 98/140/183 97/139/184 96/138/185 95/137/186 94/136/187 93/135/188 92/134/189 91/133/190 90/132/191 89/131/192 88/130/193 87/129/194 86/128/195 85/127/196 84/126/197 83/125/198 82/124/199 101/143/200 100/142/201
usemtl lambert3SG
f 99/141/202 100/142/203 101/143/204 82/124/205 83/125/206 84/126/207 85/127/208 86/128/209 87/129/210 88/130/211 89/131/212 90/132/213 91/133/214 92/134/215 93/135/216 94/136/217 95/137/218 96/138/219 97/139/220 98/140/221 120/162/222 119/161/223 118/160/224 117/159/225 116/158/226 115/157/227 114/156/228 113/155/229 112/154/230 111/153/231 110/152/232 109/151/233 108/150/234 107/149/235 106/148/236 105/147/237 104/146/238 103/145/239 102/144/240 121/163/241
usemtl lambert2SG
f 120/162/242 121/163/243 102/144/244 103/145/245 104/146/246 105/147/247 106/148/248 107/149/249 108/150/250 109/151/251 110/152/252 111/153/253 112/154/254 113/155/255 114/156/256 115/157/257 116/158/258 117/159/259 118/160/260 119/161/261 141/183/262 140/182/263 139/181/264 138/180/265 137/179/266 136/178/267 135/177/268 134/176/269 133/175/270 132/174/271 131/173/272 130/172/273 129/171/274 128/170/275 127/169/276 126/168/277 125/167/278 124/166/279 123/165/280 122/164/281
